<svg width="600" height="600" viewBox="0 0 600 600" fill="none" xmlns="http://www.w3.org/2000/svg">
<g clip-path="url(#clip0_1_2)">
<rect width="600" height="600" fill="white"/>
<rect width="75" height="75" fill="#7C4C3E"/>
<rect x="75" y="75" width="75" height="75" fill="#7C4C3E"/>
<rect x="75" width="75" height="75" fill="#512A2A"/>
<rect y="75" width="75" height="75" fill="#512A2A"/>
<rect x="225" y="75" width="75" height="75" fill="#7C4C3E"/>
<rect x="150" y="75" width="75" height="75" fill="#512A2A"/>
<rect x="375" y="75" width="75" height="75" fill="#7C4C3E"/>
<rect x="300" y="75" width="75" height="75" fill="#512A2A"/>
<rect x="525" y="75" width="75" height="75" fill="#7C4C3E"/>
<rect x="450" y="75" width="75" height="75" fill="#512A2A"/>
<rect x="150" width="75" height="75" fill="#7C4C3E"/>
<rect x="225" width="75" height="75" fill="#512A2A"/>
<rect x="300" width="75" height="75" fill="#7C4C3E"/>
<rect x="375" width="75" height="75" fill="#512A2A"/>
<rect x="450" width="75" height="75" fill="#7C4C3E"/>
<rect x="525" width="75" height="75" fill="#512A2A"/>
<rect y="150" width="75" height="75" fill="#7C4C3E"/>
<rect x="75" y="225" width="75" height="75" fill="#7C4C3E"/>
<rect x="75" y="150" width="75" height="75" fill="#512A2A"/>
<rect y="225" width="75" height="75" fill="#512A2A"/>
<rect x="225" y="225" width="75" height="75" fill="#7C4C3E"/>
<rect x="150" y="225" width="75" height="75" fill="#512A2A"/>
<rect x="375" y="225" width="75" height="75" fill="#7C4C3E"/>
<rect x="300" y="225" width="75" height="75" fill="#512A2A"/>
<rect x="525" y="225" width="75" height="75" fill="#7C4C3E"/>
<rect x="450" y="225" width="75" height="75" fill="#512A2A"/>
<rect x="150" y="150" width="75" height="75" fill="#7C4C3E"/>
<rect x="225" y="150" width="75" height="75" fill="#512A2A"/>
<rect x="300" y="150" width="75" height="75" fill="#7C4C3E"/>
<rect x="375" y="150" width="75" height="75" fill="#512A2A"/>
<rect x="450" y="150" width="75" height="75" fill="#7C4C3E"/>
<rect x="525" y="150" width="75" height="75" fill="#512A2A"/>
<rect y="300" width="75" height="75" fill="#7C4C3E"/>
<rect x="75" y="375" width="75" height="75" fill="#7C4C3E"/>
<rect x="75" y="300" width="75" height="75" fill="#512A2A"/>
<rect y="375" width="75" height="75" fill="#512A2A"/>
<rect x="225" y="375" width="75" height="75" fill="#7C4C3E"/>
<rect x="150" y="375" width="75" height="75" fill="#512A2A"/>
<rect x="375" y="375" width="75" height="75" fill="#7C4C3E"/>
<rect x="300" y="375" width="75" height="75" fill="#512A2A"/>
<rect x="525" y="375" width="75" height="75" fill="#7C4C3E"/>
<rect x="450" y="375" width="75" height="75" fill="#512A2A"/>
<rect x="150" y="300" width="75" height="75" fill="#7C4C3E"/>
<rect x="225" y="300" width="75" height="75" fill="#512A2A"/>
<rect x="300" y="300" width="75" height="75" fill="#7C4C3E"/>
<rect x="375" y="300" width="75" height="75" fill="#512A2A"/>
<rect x="450" y="300" width="75" height="75" fill="#7C4C3E"/>
<rect x="525" y="300" width="75" height="75" fill="#512A2A"/>
<rect y="450" width="75" height="75" fill="#7C4C3E"/>
<rect x="75" y="525" width="75" height="75" fill="#7C4C3E"/>
<rect x="75" y="450" width="75" height="75" fill="#512A2A"/>
<rect y="525" width="75" height="75" fill="#512A2A"/>
<rect x="225" y="525" width="75" height="75" fill="#7C4C3E"/>
<rect x="150" y="525" width="75" height="75" fill="#512A2A"/>
<rect x="375" y="525" width="75" height="75" fill="#7C4C3E"/>
<rect x="300" y="525" width="75" height="75" fill="#512A2A"/>
<rect x="525" y="525" width="75" height="75" fill="#7C4C3E"/>
<rect x="450" y="525" width="75" height="75" fill="#512A2A"/>
<rect x="150" y="450" width="75" height="75" fill="#7C4C3E"/>
<rect x="225" y="450" width="75" height="75" fill="#512A2A"/>
<rect x="300" y="450" width="75" height="75" fill="#7C4C3E"/>
<rect x="375" y="450" width="75" height="75" fill="#512A2A"/>
<rect x="450" y="450" width="75" height="75" fill="#7C4C3E"/>
<rect x="525" y="450" width="75" height="75" fill="#512A2A"/>
</g>
<defs>
<clipPath id="clip0_1_2">
<rect width="600" height="600" fill="white"/>
</clipPath>
</defs>
</svg>
