<svg width="205" height="72" viewBox="0 0 205 72" fill="none" xmlns="http://www.w3.org/2000/svg">
<g filter="url(#filter0_d_0_3)">
<g filter="url(#filter1_d_0_3)">
<path d="M61.8106 46.704C61.8106 43.952 62.3706 41.552 63.4906 39.504C64.6106 37.424 66.1626 35.824 68.1466 34.704C70.1306 33.552 72.4026 32.976 74.9626 32.976C78.2586 32.976 80.9786 33.808 83.1226 35.472C85.2986 37.104 86.7546 39.408 87.4906 42.384H80.2426C79.8586 41.232 79.2026 40.336 78.2746 39.696C77.3786 39.024 76.2586 38.688 74.9146 38.688C72.9946 38.688 71.4746 39.392 70.3546 40.8C69.2346 42.176 68.6746 44.144 68.6746 46.704C68.6746 49.232 69.2346 51.2 70.3546 52.608C71.4746 53.984 72.9946 54.672 74.9146 54.672C77.6346 54.672 79.4106 53.456 80.2426 51.024H87.4906C86.7546 53.904 85.2986 56.192 83.1226 57.888C80.9466 59.584 78.2266 60.432 74.9626 60.432C72.4026 60.432 70.1306 59.872 68.1466 58.752C66.1626 57.6 64.6106 56 63.4906 53.952C62.3706 51.872 61.8106 49.456 61.8106 46.704ZM107.39 33.024C109.406 33.024 111.198 33.472 112.766 34.368C114.334 35.232 115.55 36.528 116.414 38.256C117.31 39.952 117.758 42 117.758 44.4V60H111.038V45.312C111.038 43.2 110.51 41.584 109.454 40.464C108.398 39.312 106.958 38.736 105.134 38.736C103.278 38.736 101.806 39.312 100.718 40.464C99.6616 41.584 99.1336 43.2 99.1336 45.312V60H92.4136V24.48H99.1336V36.72C99.9976 35.568 101.15 34.672 102.59 34.032C104.03 33.36 105.63 33.024 107.39 33.024ZM148.868 46.128C148.868 47.088 148.804 47.952 148.676 48.72H129.236C129.396 50.64 130.068 52.144 131.252 53.232C132.436 54.32 133.892 54.864 135.62 54.864C138.116 54.864 139.892 53.792 140.948 51.648H148.196C147.428 54.208 145.956 56.32 143.78 57.984C141.604 59.616 138.932 60.432 135.764 60.432C133.204 60.432 130.9 59.872 128.852 58.752C126.836 57.6 125.252 55.984 124.1 53.904C122.98 51.824 122.42 49.424 122.42 46.704C122.42 43.952 122.98 41.536 124.1 39.456C125.22 37.376 126.788 35.776 128.804 34.656C130.82 33.536 133.14 32.976 135.764 32.976C138.292 32.976 140.548 33.52 142.532 34.608C144.548 35.696 146.1 37.248 147.188 39.264C148.308 41.248 148.868 43.536 148.868 46.128ZM141.908 44.208C141.876 42.48 141.252 41.104 140.036 40.08C138.82 39.024 137.332 38.496 135.572 38.496C133.908 38.496 132.5 39.008 131.348 40.032C130.228 41.024 129.54 42.416 129.284 44.208H141.908ZM163.949 60.432C161.773 60.432 159.821 60.048 158.093 59.28C156.365 58.48 154.989 57.408 153.965 56.064C152.973 54.72 152.429 53.232 152.333 51.6H159.101C159.229 52.624 159.725 53.472 160.589 54.144C161.485 54.816 162.589 55.152 163.901 55.152C165.181 55.152 166.173 54.896 166.877 54.384C167.613 53.872 167.981 53.216 167.981 52.416C167.981 51.552 167.533 50.912 166.637 50.496C165.773 50.048 164.381 49.568 162.461 49.056C160.477 48.576 158.845 48.08 157.565 47.568C156.317 47.056 155.229 46.272 154.301 45.216C153.405 44.16 152.957 42.736 152.957 40.944C152.957 39.472 153.373 38.128 154.205 36.912C155.069 35.696 156.285 34.736 157.853 34.032C159.453 33.328 161.325 32.976 163.469 32.976C166.637 32.976 169.165 33.776 171.053 35.376C172.941 36.944 173.981 39.072 174.173 41.76H167.741C167.645 40.704 167.197 39.872 166.397 39.264C165.629 38.624 164.589 38.304 163.277 38.304C162.061 38.304 161.117 38.528 160.445 38.976C159.805 39.424 159.485 40.048 159.485 40.848C159.485 41.744 159.933 42.432 160.829 42.912C161.725 43.36 163.117 43.824 165.005 44.304C166.925 44.784 168.509 45.28 169.757 45.792C171.005 46.304 172.077 47.104 172.973 48.192C173.901 49.248 174.381 50.656 174.413 52.416C174.413 53.952 173.981 55.328 173.117 56.544C172.285 57.76 171.069 58.72 169.469 59.424C167.901 60.096 166.061 60.432 163.949 60.432ZM190.105 60.432C187.929 60.432 185.977 60.048 184.249 59.28C182.521 58.48 181.145 57.408 180.121 56.064C179.129 54.72 178.585 53.232 178.489 51.6H185.257C185.385 52.624 185.881 53.472 186.745 54.144C187.641 54.816 188.745 55.152 190.057 55.152C191.337 55.152 192.329 54.896 193.033 54.384C193.769 53.872 194.137 53.216 194.137 52.416C194.137 51.552 193.689 50.912 192.793 50.496C191.929 50.048 190.537 49.568 188.617 49.056C186.633 48.576 185.001 48.08 183.721 47.568C182.473 47.056 181.385 46.272 180.457 45.216C179.561 44.16 179.113 42.736 179.113 40.944C179.113 39.472 179.529 38.128 180.361 36.912C181.225 35.696 182.441 34.736 184.009 34.032C185.609 33.328 187.481 32.976 189.625 32.976C192.793 32.976 195.321 33.776 197.209 35.376C199.097 36.944 200.137 39.072 200.329 41.76H193.897C193.801 40.704 193.353 39.872 192.553 39.264C191.785 38.624 190.745 38.304 189.433 38.304C188.217 38.304 187.273 38.528 186.601 38.976C185.961 39.424 185.641 40.048 185.641 40.848C185.641 41.744 186.089 42.432 186.985 42.912C187.881 43.36 189.273 43.824 191.161 44.304C193.081 44.784 194.665 45.28 195.913 45.792C197.161 46.304 198.233 47.104 199.129 48.192C200.057 49.248 200.537 50.656 200.569 52.416C200.569 53.952 200.137 55.328 199.273 56.544C198.441 57.76 197.225 58.72 195.625 59.424C194.057 60.096 192.217 60.432 190.105 60.432Z" fill="#F8F0E3"/>
</g>
<g clip-path="url(#clip0_0_3)">
<g filter="url(#filter2_d_0_3)">
<path d="M14.375 34.0588L19.4538 36.3162C19.9419 36.5332 20.4687 36.6502 21.0028 36.6603C21.537 36.6704 22.0677 36.5734 22.5638 36.375L24.1613 35.735C24.7196 35.5116 25.2204 35.1652 25.6264 34.7216C26.0324 34.2779 26.3332 33.7484 26.5063 33.1725L27.6588 29.3412C27.7636 28.9213 27.9581 28.529 28.2289 28.1914C28.4997 27.8537 28.8404 27.5786 29.2275 27.385L31.9925 26V32.2912C31.9927 33.4056 31.6826 34.4981 31.0969 35.4461C30.5111 36.3941 29.6729 37.1603 28.6763 37.6587L21.5238 41.24C19.8634 42.0712 18.4672 43.3482 17.4916 44.928C16.516 46.5079 15.9995 48.3282 16 50.185V52H55.9825V28C55.9825 14.75 45.2425 4 31.9925 4H13.5C13.1022 4 12.7206 4.15804 12.4393 4.43934C12.158 4.72064 12 5.10218 12 5.5C11.9998 5.82895 12.0764 6.1534 12.2238 6.4475L14 10L12.875 11.125C12.5967 11.4043 12.3761 11.7358 12.226 12.1004C12.0758 12.465 11.999 12.8557 12 13.25V30.4013C11.9995 31.1753 12.2237 31.9329 12.6452 32.5821C13.0668 33.2313 13.6677 33.7443 14.375 34.0588ZM18.5 16C18.9945 16 19.4778 16.1466 19.8889 16.4213C20.3 16.696 20.6205 17.0865 20.8097 17.5433C20.9989 18.0001 21.0484 18.5028 20.952 18.9877C20.8555 19.4727 20.6174 19.9181 20.2678 20.2678C19.9181 20.6174 19.4727 20.8555 18.9877 20.952C18.5028 21.0484 18.0001 20.9989 17.5433 20.8097C17.0865 20.6205 16.696 20.3 16.4213 19.8889C16.1466 19.4778 16 18.9945 16 18.5C16 17.837 16.2634 17.2011 16.7322 16.7322C17.2011 16.2634 17.837 16 18.5 16ZM58 56H14C13.4696 56 12.9609 56.2107 12.5858 56.5858C12.2107 56.9609 12 57.4696 12 58V62C12 62.5304 12.2107 63.0391 12.5858 63.4142C12.9609 63.7893 13.4696 64 14 64H58C58.5304 64 59.0391 63.7893 59.4142 63.4142C59.7893 63.0391 60 62.5304 60 62V58C60 57.4696 59.7893 56.9609 59.4142 56.5858C59.0391 56.2107 58.5304 56 58 56Z" fill="#F8F0E3"/>
</g>
</g>
</g>
<defs>
<filter id="filter0_d_0_3" x="0" y="0" width="204.569" height="72" filterUnits="userSpaceOnUse" color-interpolation-filters="sRGB">
<feFlood flood-opacity="0" result="BackgroundImageFix"/>
<feColorMatrix in="SourceAlpha" type="matrix" values="0 0 0 0 0 0 0 0 0 0 0 0 0 0 0 0 0 0 127 0" result="hardAlpha"/>
<feOffset dy="4"/>
<feGaussianBlur stdDeviation="2"/>
<feComposite in2="hardAlpha" operator="out"/>
<feColorMatrix type="matrix" values="0 0 0 0 0 0 0 0 0 0 0 0 0 0 0 0 0 0 0.25 0"/>
<feBlend mode="normal" in2="BackgroundImageFix" result="effect1_dropShadow_0_3"/>
<feBlend mode="normal" in="SourceGraphic" in2="effect1_dropShadow_0_3" result="shape"/>
</filter>
<filter id="filter1_d_0_3" x="61.8106" y="24.48" width="138.759" height="37.952" filterUnits="userSpaceOnUse" color-interpolation-filters="sRGB">
<feFlood flood-opacity="0" result="BackgroundImageFix"/>
<feColorMatrix in="SourceAlpha" type="matrix" values="0 0 0 0 0 0 0 0 0 0 0 0 0 0 0 0 0 0 127 0" result="hardAlpha"/>
<feOffset dy="2"/>
<feComposite in2="hardAlpha" operator="out"/>
<feColorMatrix type="matrix" values="0 0 0 0 0 0 0 0 0 0 0 0 0 0 0 0 0 0 0.25 0"/>
<feBlend mode="normal" in2="BackgroundImageFix" result="effect1_dropShadow_0_3"/>
<feBlend mode="normal" in="SourceGraphic" in2="effect1_dropShadow_0_3" result="shape"/>
</filter>
<filter id="filter2_d_0_3" x="12" y="4" width="48" height="62" filterUnits="userSpaceOnUse" color-interpolation-filters="sRGB">
<feFlood flood-opacity="0" result="BackgroundImageFix"/>
<feColorMatrix in="SourceAlpha" type="matrix" values="0 0 0 0 0 0 0 0 0 0 0 0 0 0 0 0 0 0 127 0" result="hardAlpha"/>
<feOffset dy="2"/>
<feComposite in2="hardAlpha" operator="out"/>
<feColorMatrix type="matrix" values="0 0 0 0 0 0 0 0 0 0 0 0 0 0 0 0 0 0 0.25 0"/>
<feBlend mode="normal" in2="BackgroundImageFix" result="effect1_dropShadow_0_3"/>
<feBlend mode="normal" in="SourceGraphic" in2="effect1_dropShadow_0_3" result="shape"/>
</filter>
<clipPath id="clip0_0_3">
<rect width="64" height="64" fill="white" transform="translate(4)"/>
</clipPath>
</defs>
</svg>
